<svg width="75" height="70" viewBox="0 0 75 70" fill="none" xmlns="http://www.w3.org/2000/svg">
<path d="M51.5615 13.125C51.5615 5.87616 45.2657 0 37.4993 0C29.7328 0 23.437 5.87616 23.437 13.125C23.437 20.3738 29.7328 26.2499 37.4993 26.2499C45.2657 26.2499 51.5615 20.3738 51.5615 13.125ZM34.2166 32.9628C25.5259 27.9972 11.449 26.6327 4.36515 26.2568C1.98482 26.131 0 27.8236 0 29.9605V60.4213C0 62.3805 1.69772 64.0143 3.8803 64.1196C10.2757 64.4326 23.2144 65.5797 32.1571 69.7838C33.5296 70.4291 35.157 69.55 35.157 68.1609V34.5296C35.1556 33.8911 34.8172 33.306 34.2166 32.9628ZM70.6334 26.2568C63.551 26.6314 49.4727 27.9972 40.7834 32.9628C40.1828 33.306 39.8444 33.9144 39.8444 34.5528V68.1569C39.8444 69.55 41.4762 70.4305 42.8532 69.7838C51.7944 65.5838 64.7258 64.4367 71.1197 64.1237C73.3023 64.017 75 62.3832 75 60.4241V29.9605C74.9985 27.8236 73.0137 26.131 70.6334 26.2568Z" fill="white"/>
</svg>
